# xmcd
#
# Track frame offsets:
#	150
#	13768
#	28388
#	45205
#	59560
#	78003
#	96022
#	109586
#	121630
#	133910
#	149843
#	163428
#	177313
#
# Disc length: 2501 seconds
#
# Revision: 1
# Processed by: cddbd v1.5.1PL0 Copyright (c) Steve Scherf et al.
# Submitted via: audiograbber 1.81.03
#
DISCID=b309c30d
DTITLE=Nick Curran - Fixin' Your Head
DYEAR=2000
DGENRE=Blues
TTITLE0=Women And Cadillacs
TTITLE1=Boogie With My Baby
TTITLE2=Just Love Me Baby
TTITLE3=I Want To Love You
TTITLE4=Good Rockin' Man
TTITLE5=Lonely Nights
TTITLE6=Loose Lip Mama
TTITLE7=It's My Life, Baby
TTITLE8=She's Mine
TTITLE9=Straighten Up
TTITLE10=Do You Wanna Be My Baby?
TTITLE11=I'm Waiting For Your Call
TTITLE12=Get Rich Quick
EXTD=
EXTT0=
EXTT1=
EXTT2=
EXTT3=
EXTT4=
EXTT5=
EXTT6=
EXTT7=
EXTT8=
EXTT9=
EXTT10=
EXTT11=
EXTT12=
PLAYORDER=
